<svg width="24" height="24" viewBox="0 0 24 24" fill="none" xmlns="http://www.w3.org/2000/svg">
<path d="M5.25 9C5.84674 9 6.41903 8.76295 6.84099 8.34099C7.26295 7.91903 7.5 7.34674 7.5 6.75C7.5 6.15326 7.26295 5.58097 6.84099 5.15901C6.41903 4.73705 5.84674 4.5 5.25 4.5C4.65326 4.5 4.08097 4.73705 3.65901 5.15901C3.23705 5.58097 3 6.15326 3 6.75C3 7.34674 3.23705 7.91903 3.65901 8.34099C4.08097 8.76295 4.65326 9 5.25 9Z" fill="#9492A0"/>
<path d="M5.25 19.5C5.84674 19.5 6.41903 19.2629 6.84099 18.841C7.26295 18.419 7.5 17.8467 7.5 17.25C7.5 16.6533 7.26295 16.081 6.84099 15.659C6.41903 15.2371 5.84674 15 5.25 15C4.65326 15 4.08097 15.2371 3.65901 15.659C3.23705 16.081 3 16.6533 3 17.25C3 17.8467 3.23705 18.419 3.65901 18.841C4.08097 19.2629 4.65326 19.5 5.25 19.5Z" fill="#9492A0"/>
<path d="M22.75 17.25C22.75 16.6977 22.3023 16.25 21.75 16.25H12.75C12.1977 16.25 11.75 16.6977 11.75 17.25C11.75 17.8023 12.1977 18.25 12.75 18.25H21.75C22.3023 18.25 22.75 17.8023 22.75 17.25Z" fill="#9492A0" stroke="#9492A0" stroke-width="0.5"/>
<path d="M22.75 6.75C22.75 6.19772 22.3023 5.75 21.75 5.75H12.75C12.1977 5.75 11.75 6.19772 11.75 6.75C11.75 7.30228 12.1977 7.75 12.75 7.75H21.75C22.3023 7.75 22.75 7.30228 22.75 6.75Z" fill="#9492A0" stroke="#9492A0" stroke-width="0.5"/>
</svg>
