<svg width="22" height="24" viewBox="0 0 22 24" fill="none" xmlns="http://www.w3.org/2000/svg">
<path d="M7.966 3.85742L8.70314 1.95456C8.82745 1.63239 9.04617 1.35527 9.33065 1.1595C9.61513 0.963731 9.9521 0.858442 10.2974 0.857422H11.7031C12.0485 0.858442 12.3854 0.963731 12.6699 1.1595C12.9544 1.35527 13.1731 1.63239 13.2974 1.95456L14.0346 3.85742L16.5374 5.29742L18.5603 4.98885C18.8971 4.94313 19.2399 4.99858 19.5452 5.14815C19.8504 5.29772 20.1043 5.53465 20.2746 5.82885L20.9603 7.02885C21.136 7.32773 21.2169 7.67287 21.1925 8.01871C21.168 8.36456 21.0392 8.69485 20.8231 8.96599L19.5717 10.5603V13.4403L20.8574 15.0346C21.0735 15.3057 21.2023 15.636 21.2267 15.9818C21.2512 16.3277 21.1703 16.6728 20.9946 16.9717L20.3089 18.1717C20.1386 18.4659 19.8847 18.7028 19.5795 18.8524C19.2742 19.002 18.9314 19.0574 18.5946 19.0117L16.5717 18.7031L14.0689 20.1431L13.3317 22.046C13.2074 22.3682 12.9887 22.6453 12.7042 22.8411C12.4197 23.0368 12.0828 23.1421 11.7374 23.1431H10.2974C9.9521 23.1421 9.61513 23.0368 9.33065 22.8411C9.04617 22.6453 8.82745 22.3682 8.70314 22.046L7.966 20.1431L5.46314 18.7031L3.44028 19.0117C3.10345 19.0574 2.76064 19.002 2.45539 18.8524C2.15015 18.7028 1.89626 18.4659 1.726 18.1717L1.04028 16.9717C0.86457 16.6728 0.783614 16.3277 0.808098 15.9818C0.832582 15.636 0.961356 15.3057 1.17742 15.0346L2.42885 13.4403V10.5603L1.14314 8.96599C0.92707 8.69485 0.798297 8.36456 0.773812 8.01871C0.749328 7.67287 0.830284 7.32773 1.006 7.02885L1.69171 5.82885C1.86198 5.53465 2.11587 5.29772 2.42111 5.14815C2.72635 4.99858 3.06917 4.94313 3.406 4.98885L5.42885 5.29742L7.966 3.85742ZM7.57171 12.0003C7.57171 12.6784 7.77279 13.3413 8.14953 13.9051C8.52626 14.4689 9.06173 14.9084 9.68822 15.1679C10.3147 15.4274 11.0041 15.4953 11.6692 15.363C12.3342 15.2307 12.9452 14.9041 13.4246 14.4246C13.9041 13.9451 14.2307 13.3342 14.363 12.6692C14.4953 12.0041 14.4274 11.3147 14.1679 10.6882C13.9084 10.0617 13.4689 9.52626 12.9051 9.14953C12.3413 8.77279 11.6784 8.57171 11.0003 8.57171C10.091 8.57171 9.2189 8.93293 8.57591 9.57591C7.93293 10.2189 7.57171 11.091 7.57171 12.0003V12.0003Z" stroke="#EA9528" stroke-width="1.45055" stroke-linecap="round" stroke-linejoin="round"/>
</svg>
